# xmcd
#
# Track frame offsets: 
#        150
#        18131
#        33909
#        47561
#        66929
#
# Disc length: 1135 seconds
#
# Revision: 0
# Processed by: cddbd v1.5.2PL0 Copyright (c) Steve Scherf et al.
# Submitted via: ExactAudioCopy v0.99pb5
#
DISCID=34046d05
DTITLE=iamdavidcook - All Is Fair In Love and War
DYEAR=2010
DGENRE=Acoustic
TTITLE0=Echo
TTITLE1=Perfect Or Something
TTITLE2=Touch 'n Go
TTITLE3=She Can
TTITLE4=Love and War
EXTD=
EXTT0=
EXTT1=
EXTT2=
EXTT3=
EXTT4=
PLAYORDER=
